<svg width="32" height="32" viewBox="0 0 24 24" fill="none" xmlns="http://www.w3.org/2000/svg">
  <path d="M9.5 2C8.67157 2 8 2.67157 8 3.5C8 4.32843 8.67157 5 9.5 5C10.3284 5 11 4.32843 11 3.5C11 2.67157 10.3284 2 9.5 2Z" fill="#3B82F6"/>
  <path d="M14.5 2C13.6716 2 13 2.67157 13 3.5C13 4.32843 13.6716 5 14.5 5C15.3284 5 16 4.32843 16 3.5C16 2.67157 15.3284 2 14.5 2Z" fill="#3B82F6"/>
  <path d="M12 6C7.58172 6 4 9.58172 4 14C4 18.4183 7.58172 22 12 22C16.4183 22 20 18.4183 20 14C20 9.58172 16.4183 6 12 6Z" fill="#3B82F6"/>
  <circle cx="9" cy="12" r="1" fill="white"/>
  <circle cx="15" cy="12" r="1" fill="white"/>
  <path d="M9 16C9 16 10.5 18 12 18C13.5 18 15 16 15 16" stroke="white" stroke-width="1.5" stroke-linecap="round"/>
</svg>